<mxfile host="Electron" modified="2024-04-22T14:52:49.640Z" agent="Mozilla/5.0 (Windows NT 10.0; Win64; x64) AppleWebKit/537.36 (KHTML, like Gecko) draw.io/23.1.5 Chrome/120.0.6099.109 Electron/28.1.0 Safari/537.36" etag="3Fripk0-gv0_sUcZybli" version="23.1.5" type="device">
  <diagram name="Страница — 1" id="JLULOAlkJ3aI0VZnD2LQ">
    <mxGraphModel dx="1028" dy="673" grid="1" gridSize="10" guides="1" tooltips="1" connect="1" arrows="1" fold="1" page="1" pageScale="1" pageWidth="827" pageHeight="1169" math="0" shadow="0">
      <root>
        <mxCell id="0" />
        <mxCell id="1" parent="0" />
        <mxCell id="PrqNwceRL6wHO7XUW2bo-5" style="edgeStyle=orthogonalEdgeStyle;rounded=0;orthogonalLoop=1;jettySize=auto;html=1;exitX=0.5;exitY=1;exitDx=0;exitDy=0;entryX=0.5;entryY=0;entryDx=0;entryDy=0;" edge="1" parent="1" source="gBKuoCQjEU2EA3JGXyk2-1" target="PrqNwceRL6wHO7XUW2bo-4">
          <mxGeometry relative="1" as="geometry" />
        </mxCell>
        <mxCell id="gBKuoCQjEU2EA3JGXyk2-1" value="Начало" style="rounded=1;whiteSpace=wrap;html=1;arcSize=35;" parent="1" vertex="1">
          <mxGeometry x="299" y="170" width="90" height="50" as="geometry" />
        </mxCell>
        <mxCell id="PrqNwceRL6wHO7XUW2bo-12" style="edgeStyle=orthogonalEdgeStyle;rounded=0;orthogonalLoop=1;jettySize=auto;html=1;exitX=1;exitY=0.5;exitDx=0;exitDy=0;entryX=0.5;entryY=0;entryDx=0;entryDy=0;" edge="1" parent="1" source="BV9hFHMpi5gddi6Hwt6v-22" target="PrqNwceRL6wHO7XUW2bo-11">
          <mxGeometry relative="1" as="geometry" />
        </mxCell>
        <mxCell id="PrqNwceRL6wHO7XUW2bo-22" style="edgeStyle=orthogonalEdgeStyle;rounded=0;orthogonalLoop=1;jettySize=auto;html=1;exitX=0;exitY=0.5;exitDx=0;exitDy=0;entryX=0.5;entryY=0;entryDx=0;entryDy=0;" edge="1" parent="1" source="BV9hFHMpi5gddi6Hwt6v-22" target="PrqNwceRL6wHO7XUW2bo-9">
          <mxGeometry relative="1" as="geometry" />
        </mxCell>
        <mxCell id="BV9hFHMpi5gddi6Hwt6v-22" value="n &amp;gt;= 1 и n &amp;lt;= 26" style="rhombus;whiteSpace=wrap;html=1;" parent="1" vertex="1">
          <mxGeometry x="274" y="380" width="140" height="100" as="geometry" />
        </mxCell>
        <mxCell id="PrqNwceRL6wHO7XUW2bo-3" style="edgeStyle=orthogonalEdgeStyle;rounded=0;orthogonalLoop=1;jettySize=auto;html=1;exitX=0.5;exitY=1;exitDx=0;exitDy=0;entryX=0.5;entryY=0;entryDx=0;entryDy=0;" edge="1" parent="1" source="PrqNwceRL6wHO7XUW2bo-1" target="BV9hFHMpi5gddi6Hwt6v-22">
          <mxGeometry relative="1" as="geometry" />
        </mxCell>
        <mxCell id="PrqNwceRL6wHO7XUW2bo-23" style="edgeStyle=orthogonalEdgeStyle;rounded=0;orthogonalLoop=1;jettySize=auto;html=1;exitX=1;exitY=0.5;exitDx=0;exitDy=0;entryX=0;entryY=0.5;entryDx=0;entryDy=0;" edge="1" parent="1" source="PrqNwceRL6wHO7XUW2bo-1" target="PrqNwceRL6wHO7XUW2bo-19">
          <mxGeometry relative="1" as="geometry" />
        </mxCell>
        <mxCell id="PrqNwceRL6wHO7XUW2bo-1" value="Получаем n" style="shape=hexagon;perimeter=hexagonPerimeter2;whiteSpace=wrap;html=1;fixedSize=1;" vertex="1" parent="1">
          <mxGeometry x="285" y="300" width="120" height="60" as="geometry" />
        </mxCell>
        <mxCell id="PrqNwceRL6wHO7XUW2bo-6" style="edgeStyle=orthogonalEdgeStyle;rounded=0;orthogonalLoop=1;jettySize=auto;html=1;exitX=0.5;exitY=1;exitDx=0;exitDy=0;entryX=0.5;entryY=0;entryDx=0;entryDy=0;" edge="1" parent="1" source="PrqNwceRL6wHO7XUW2bo-4" target="PrqNwceRL6wHO7XUW2bo-1">
          <mxGeometry relative="1" as="geometry" />
        </mxCell>
        <mxCell id="PrqNwceRL6wHO7XUW2bo-4" value="Ввод n" style="rounded=0;whiteSpace=wrap;html=1;" vertex="1" parent="1">
          <mxGeometry x="309" y="240" width="70" height="40" as="geometry" />
        </mxCell>
        <mxCell id="PrqNwceRL6wHO7XUW2bo-7" value="True" style="text;html=1;align=center;verticalAlign=middle;whiteSpace=wrap;rounded=0;" vertex="1" parent="1">
          <mxGeometry x="379" y="390" width="60" height="30" as="geometry" />
        </mxCell>
        <mxCell id="PrqNwceRL6wHO7XUW2bo-8" value="False" style="text;html=1;align=center;verticalAlign=middle;whiteSpace=wrap;rounded=0;" vertex="1" parent="1">
          <mxGeometry x="249" y="390" width="60" height="30" as="geometry" />
        </mxCell>
        <mxCell id="PrqNwceRL6wHO7XUW2bo-25" style="edgeStyle=orthogonalEdgeStyle;rounded=0;orthogonalLoop=1;jettySize=auto;html=1;exitX=0;exitY=0.5;exitDx=0;exitDy=0;entryX=0;entryY=0.5;entryDx=0;entryDy=0;" edge="1" parent="1" source="PrqNwceRL6wHO7XUW2bo-9" target="PrqNwceRL6wHO7XUW2bo-1">
          <mxGeometry relative="1" as="geometry" />
        </mxCell>
        <mxCell id="PrqNwceRL6wHO7XUW2bo-9" value="Вывод:&lt;br&gt;&quot;Сударь(Сударыня), необходимо ввести число больше 1 и менее 26&quot;" style="rounded=0;whiteSpace=wrap;html=1;" vertex="1" parent="1">
          <mxGeometry x="180" y="480" width="150" height="70" as="geometry" />
        </mxCell>
        <mxCell id="PrqNwceRL6wHO7XUW2bo-14" style="edgeStyle=orthogonalEdgeStyle;rounded=0;orthogonalLoop=1;jettySize=auto;html=1;exitX=0.5;exitY=1;exitDx=0;exitDy=0;entryX=0.5;entryY=0;entryDx=0;entryDy=0;" edge="1" parent="1" source="PrqNwceRL6wHO7XUW2bo-11" target="PrqNwceRL6wHO7XUW2bo-13">
          <mxGeometry relative="1" as="geometry" />
        </mxCell>
        <mxCell id="PrqNwceRL6wHO7XUW2bo-11" value="n = parseInt(n)" style="rounded=0;whiteSpace=wrap;html=1;" vertex="1" parent="1">
          <mxGeometry x="414" y="450" width="116" height="40" as="geometry" />
        </mxCell>
        <mxCell id="PrqNwceRL6wHO7XUW2bo-16" style="edgeStyle=orthogonalEdgeStyle;rounded=0;orthogonalLoop=1;jettySize=auto;html=1;exitX=0.5;exitY=1;exitDx=0;exitDy=0;entryX=0.5;entryY=0;entryDx=0;entryDy=0;" edge="1" parent="1" source="PrqNwceRL6wHO7XUW2bo-13" target="PrqNwceRL6wHO7XUW2bo-15">
          <mxGeometry relative="1" as="geometry" />
        </mxCell>
        <mxCell id="PrqNwceRL6wHO7XUW2bo-13" value="en_string = &quot;zyxwvutsrqponmlkjihgfedcba&quot;" style="rounded=0;whiteSpace=wrap;html=1;" vertex="1" parent="1">
          <mxGeometry x="383" y="510" width="178" height="40" as="geometry" />
        </mxCell>
        <mxCell id="PrqNwceRL6wHO7XUW2bo-18" style="edgeStyle=orthogonalEdgeStyle;rounded=0;orthogonalLoop=1;jettySize=auto;html=1;exitX=0.5;exitY=1;exitDx=0;exitDy=0;entryX=0.5;entryY=0;entryDx=0;entryDy=0;" edge="1" parent="1" source="PrqNwceRL6wHO7XUW2bo-15" target="PrqNwceRL6wHO7XUW2bo-17">
          <mxGeometry relative="1" as="geometry" />
        </mxCell>
        <mxCell id="PrqNwceRL6wHO7XUW2bo-15" value="letter = en_string.slice(0, n)" style="rounded=0;whiteSpace=wrap;html=1;" vertex="1" parent="1">
          <mxGeometry x="392" y="570" width="160" height="30" as="geometry" />
        </mxCell>
        <mxCell id="PrqNwceRL6wHO7XUW2bo-24" style="edgeStyle=orthogonalEdgeStyle;rounded=0;orthogonalLoop=1;jettySize=auto;html=1;exitX=0.5;exitY=1;exitDx=0;exitDy=0;entryX=0;entryY=0.5;entryDx=0;entryDy=0;" edge="1" parent="1" source="PrqNwceRL6wHO7XUW2bo-17" target="PrqNwceRL6wHO7XUW2bo-1">
          <mxGeometry relative="1" as="geometry">
            <Array as="points">
              <mxPoint x="472" y="670" />
              <mxPoint x="160" y="670" />
              <mxPoint x="160" y="330" />
            </Array>
          </mxGeometry>
        </mxCell>
        <mxCell id="PrqNwceRL6wHO7XUW2bo-17" value="Вывод&amp;nbsp;letter" style="rounded=0;whiteSpace=wrap;html=1;" vertex="1" parent="1">
          <mxGeometry x="412" y="620" width="120" height="30" as="geometry" />
        </mxCell>
        <mxCell id="PrqNwceRL6wHO7XUW2bo-19" value="Конец" style="rounded=1;whiteSpace=wrap;html=1;arcSize=35;" vertex="1" parent="1">
          <mxGeometry x="450" y="305" width="90" height="50" as="geometry" />
        </mxCell>
      </root>
    </mxGraphModel>
  </diagram>
</mxfile>
